<?xml version="1.0" standalone="no"?>
<!DOCTYPE svg PUBLIC "-//W3C//DTD SVG 20010904//EN"
 "http://www.w3.org/TR/2001/REC-SVG-20010904/DTD/svg10.dtd">
<svg version="1.0" xmlns="http://www.w3.org/2000/svg"
 width="500.000000pt" height="125.000000pt" viewBox="0 0 500.000000 125.000000"
 preserveAspectRatio="xMidYMid meet">

<g transform="translate(0.000000,125.000000) scale(0.100000,-0.100000)"
fill="#000000" stroke="none">
<path d="M147 876 c-72 -26 -101 -78 -77 -137 16 -38 57 -62 160 -95 107 -33
137 -49 145 -74 24 -77 -135 -106 -249 -45 -40 21 -46 22 -57 8 -11 -12 -9
-18 11 -34 43 -32 92 -44 190 -44 73 0 104 4 133 19 73 36 86 120 27 169 -29
25 -48 33 -185 79 -52 17 -73 30 -85 50 -14 26 -13 29 8 50 33 34 129 32 200
-3 45 -23 54 -24 64 -11 10 12 8 18 -11 33 -55 44 -196 62 -274 35z"/>
<path d="M1034 876 c-39 -17 -64 -52 -64 -88 0 -24 -4 -28 -30 -28 -23 0 -30
-5 -30 -19 0 -14 8 -21 28 -23 l27 -3 3 -127 3 -128 39 0 40 0 0 130 0 130 45
0 c38 0 45 3 45 20 0 17 -7 20 -45 20 -40 0 -45 2 -45 23 0 12 7 33 16 46 15
21 22 23 64 17 38 -5 49 -3 54 9 12 33 -90 47 -150 21z"/>
<path d="M2689 877 c-96 -36 -139 -101 -139 -209 0 -86 29 -142 95 -183 45
-28 56 -30 139 -30 75 0 98 4 133 22 50 27 59 39 43 58 -11 13 -16 12 -39 -4
-64 -45 -161 -51 -217 -15 -40 27 -64 84 -64 155 0 103 43 161 128 175 44 7
132 -17 152 -42 17 -19 27 -18 40 6 9 17 4 23 -42 46 -64 32 -172 42 -229 21z"/>
<path d="M3680 825 l0 -55 -62 0 c-120 -1 -188 -56 -188 -153 0 -61 20 -99 67
-129 33 -20 53 -23 156 -27 l117 -3 0 211 0 211 -45 0 -45 0 0 -55z m0 -210
l0 -115 -47 0 c-27 0 -59 6 -73 13 -53 27 -62 146 -14 194 19 19 34 23 79 23
l55 0 0 -115z"/>
<path d="M4635 868 c-23 -63 -135 -399 -135 -403 0 -3 17 -5 37 -3 l36 3 68
195 c37 107 68 201 68 208 1 7 -12 12 -34 12 -20 0 -38 -6 -40 -12z"/>
<path d="M600 758 c-58 -30 -81 -71 -81 -143 0 -40 6 -65 22 -91 63 -103 255
-96 317 11 19 33 22 50 18 94 -9 96 -62 144 -164 149 -55 3 -75 -1 -112 -20z
m160 -43 c19 -20 25 -37 28 -87 3 -54 0 -68 -20 -98 -19 -28 -31 -36 -62 -38
-51 -4 -83 18 -97 70 -36 135 65 237 151 153z"/>
<path d="M1840 773 c-8 -3 -26 -10 -39 -15 -22 -8 -23 -10 -9 -24 11 -12 21
-13 42 -4 70 26 146 0 146 -50 0 -17 -7 -20 -50 -20 -81 0 -147 -18 -170 -47
-41 -52 -12 -123 58 -143 20 -5 83 -10 140 -10 l102 0 0 123 c0 137 -6 153
-64 181 -33 15 -124 21 -156 9z m140 -213 l0 -60 -58 0 c-68 0 -96 20 -90 66
4 36 37 54 101 54 l47 0 0 -60z"/>
<path d="M3093 761 c-24 -11 -51 -34 -63 -53 -26 -43 -27 -130 -1 -178 40 -75
162 -103 251 -57 65 33 85 66 85 142 0 69 -15 99 -68 139 -40 30 -148 33 -204
7z m125 -22 c44 -15 65 -66 60 -140 -5 -73 -34 -109 -85 -109 -49 0 -68 14
-88 62 -28 71 -4 167 48 188 29 12 29 12 65 -1z"/>
<path d="M3920 761 c-19 -10 -46 -33 -58 -52 -20 -29 -23 -44 -20 -101 3 -58
8 -72 33 -99 17 -17 44 -38 62 -45 46 -20 130 -17 181 6 38 17 41 21 31 38
-12 19 -13 19 -43 1 -18 -11 -50 -19 -74 -19 -35 0 -49 6 -73 29 -54 55 -44
61 96 61 l125 0 0 48 c0 60 -27 105 -79 132 -52 26 -134 27 -181 1z m148 -47
c14 -16 22 -38 22 -60 l0 -35 -82 3 -83 3 3 30 c10 86 85 118 140 59z"/>
<path d="M1182 758 c3 -7 22 -77 43 -155 l38 -143 62 0 62 0 28 110 c16 60 31
108 34 105 2 -3 17 -51 31 -108 l27 -102 63 0 64 0 38 140 c21 77 38 146 38
153 0 20 -78 16 -84 -5 -3 -10 -17 -63 -31 -118 -15 -55 -30 -104 -35 -108 -4
-4 -20 42 -36 102 l-29 111 -47 0 -47 0 -15 -52 c-8 -29 -20 -75 -27 -103 -22
-92 -23 -90 -71 98 l-23 87 -43 0 c-31 0 -43 -4 -40 -12z"/>
<path d="M2150 615 l0 -155 40 0 40 0 0 135 0 135 60 0 c92 0 100 -12 100
-155 l0 -115 46 0 46 0 -3 114 c-6 173 -30 194 -221 195 l-108 1 0 -155z"/>
<path d="M4325 756 c-62 -27 -70 -46 -73 -177 l-4 -119 40 0 40 0 4 116 c3
108 5 117 27 135 16 13 39 19 77 19 47 0 54 2 54 20 0 18 -7 20 -67 20 -38 -1
-81 -7 -98 -14z"/>
<path d="M4750 736 c0 -30 6 -37 60 -70 32 -20 62 -41 65 -46 3 -5 -24 -28
-60 -51 -60 -37 -65 -44 -65 -76 0 -19 4 -33 8 -31 5 2 50 30 100 62 84 55 92
63 92 92 0 29 -8 37 -96 93 -52 33 -97 61 -100 61 -2 0 -4 -15 -4 -34z"/>
</g>
</svg>
